<svg width="441" height="319" viewBox="0 0 441 319" fill="none" xmlns="http://www.w3.org/2000/svg">
<rect width="441" height="319" fill="#1E1E1E"/>
<path d="M162 0H365L441 317H229L162 0Z" fill="#44E47B"/>
<path d="M133 15H243" stroke="#024A28" stroke-width="30" stroke-linecap="round"/>
<path d="M284 15H352" stroke="#024A28" stroke-width="30" stroke-linecap="round"/>
<path d="M320 71H341" stroke="#024A28" stroke-width="30" stroke-linecap="round"/>
<path d="M152 304H173" stroke="#024A28" stroke-width="30" stroke-linecap="round"/>
<path d="M303 127H324" stroke="#024A28" stroke-width="30" stroke-linecap="round"/>
<path d="M259 245H280" stroke="#024A28" stroke-width="30" stroke-linecap="round"/>
<path d="M64 186H85" stroke="#024A28" stroke-width="30" stroke-linecap="round"/>
<path d="M196 71.0088L281 71.0004" stroke="#024A28" stroke-width="30" stroke-linecap="round"/>
<path d="M15 303.009L104 303" stroke="#024A28" stroke-width="30" stroke-linecap="round"/>
<path d="M89 127.017L266 127" stroke="#024A28" stroke-width="30" stroke-linecap="round"/>
<path d="M136 186.017L313 186" stroke="#024A28" stroke-width="30" stroke-linecap="round"/>
<path d="M40 245.017L217 245" stroke="#024A28" stroke-width="30" stroke-linecap="round"/>
<path d="M107 71.0097L159 70" stroke="#024A28" stroke-width="30" stroke-linecap="round"/>
<path d="M217 304.01L269 303" stroke="#024A28" stroke-width="30" stroke-linecap="round"/>
</svg>
